# xmcd
#
# Track frame offsets:
#	150
#	13048
#	26186
#	39573
#	54260
#	66445
#	78908
#	91435
#	104927
#	118433
#	131974
#	144651
#	157488
#	170716
#	184386
#	196795
#	210522
#	224489
#	237689
#	249981
#	263383
#
# Disc length: 3692 seconds
#
# Revision: 0
# Processed by: cddbd v1.4PL0 Copyright (c) Steve Scherf et al.
# Submitted via: audiograbber 1.81.01
#
DISCID=4d0e6a15
DTITLE=Tommy McClennan - The Bluebird Recordings 1939-1942 Disc 2
DYEAR=1940
DGENRE=Blues
TTITLE0=Drop Down Mama
TTITLE1=Black Minnie
TTITLE2=Elsie Blues
TTITLE3=Des'e My Blues
TTITLE4=Cross Cut Saw (alt. take)
TTITLE5=Cross Cut Saw
TTITLE6=Classy Mae Blues
TTITLE7=You Can't Read My Mind
TTITLE8=Travelin' Highway Man
TTITLE9=Deep Sea Blues
TTITLE10=I'm A Guitar King
TTITLE11=It's A Crying pity
TTITLE12=Mozelle Blues
TTITLE13=Blues Trip Me This Morning
TTITLE14=Mr. So And So Blues
TTITLE15=Roll Me, Baby
TTITLE16=I Love My Baby
TTITLE17=Shake It Up And Go
TTITLE18=Blue As I Can Be
TTITLE19=Bluebird Blues
TTITLE20=Boogie Woogie Woman
EXTD=
EXTT0=
EXTT1=
EXTT2=
EXTT3=
EXTT4=
EXTT5=
EXTT6=
EXTT7=
EXTT8=
EXTT9=
EXTT10=
EXTT11=
EXTT12=
EXTT13=
EXTT14=
EXTT15=
EXTT16=
EXTT17=
EXTT18=
EXTT19=
EXTT20=
PLAYORDER=
